<?xml version="1.0" standalone="no"?>
<!DOCTYPE svg PUBLIC "-//W3C//DTD SVG 20010904//EN"
 "http://www.w3.org/TR/2001/REC-SVG-20010904/DTD/svg10.dtd">
<svg version="1.0" xmlns="http://www.w3.org/2000/svg"
 width="752.000000pt" height="752.000000pt" viewBox="0 0 752.000000 752.000000"
 preserveAspectRatio="xMidYMid meet">

<g transform="translate(0.000000,752.000000) scale(0.100000,-0.100000)"
fill="#7F7FFF" stroke="none">
<path d="M2004 4630 c-106 -16 -188 -70 -252 -169 -157 -242 -262 -418 -262
-438 0 -13 7 -38 16 -54 15 -30 14 -32 -25 -97 -22 -37 -69 -110 -103 -162
l-63 -95 -47 -3 -47 -3 -112 -177 c-316 -498 -389 -614 -389 -618 0 -2 57 -3
127 -2 l127 3 138 215 c77 118 184 287 239 375 155 247 412 660 470 755 101
165 138 215 171 235 31 19 56 20 350 25 174 3 319 8 322 11 5 4 13 37 15 62 2
13 50 7 108 -14 60 -23 126 -63 154 -95 22 -25 269 -500 269 -518 0 -3 -6 -6
-12 -6 -7 0 -65 104 -128 231 -63 127 -130 248 -148 269 -34 40 -131 95 -189
106 -30 6 -32 5 -35 -27 l-3 -34 -325 -5 c-345 -5 -359 -7 -401 -56 -14 -17
-77 -118 -221 -354 -68 -113 -258 -417 -356 -571 -48 -75 -159 -249 -247 -388
l-160 -251 -145 0 -145 0 -63 -100 c-34 -55 -62 -105 -62 -110 0 -7 94 -9 277
-8 l277 3 96 152 c52 83 163 260 245 392 83 132 200 321 261 418 62 98 123
196 136 218 14 22 59 94 100 161 42 66 83 137 93 157 22 48 75 93 122 106 51
15 311 14 354 0 65 -22 95 -54 152 -166 30 -59 78 -153 106 -207 29 -57 47
-104 43 -110 -64 -87 -74 -96 -106 -96 -36 0 -55 -12 -77 -50 -37 -61 -38 -60
75 -60 l103 0 53 73 c29 39 68 92 87 116 18 24 33 47 33 51 0 4 -54 113 -120
243 -97 190 -117 236 -104 241 29 11 61 6 76 -11 9 -10 69 -123 133 -252 85
-170 115 -238 108 -250 -4 -10 -48 -72 -97 -139 l-88 -122 -145 0 -144 0 3
-32 3 -33 120 0 c66 0 128 -2 137 -3 20 -2 108 -180 108 -218 0 -16 -8 -28
-25 -36 -34 -15 -45 -3 -98 103 l-42 84 -99 3 c-55 1 -103 -1 -107 -5 -11 -11
17 -85 38 -100 9 -7 35 -13 58 -13 38 0 43 -3 58 -36 l17 -36 -31 -39 -31 -39
-461 0 c-254 0 -467 -4 -474 -8 -11 -7 -280 -422 -290 -448 -4 -11 17 -14 111
-14 64 0 116 4 116 9 0 12 116 190 143 219 l20 22 419 0 418 0 80 120 c74 110
102 140 99 108 -1 -7 -38 -67 -82 -133 l-82 -120 -427 -3 -426 -2 -71 -110
-70 -110 487 1 c350 0 497 3 522 12 36 12 35 12 202 277 l54 85 102 3 102 3
65 -131 c75 -149 117 -201 183 -227 44 -17 118 -18 1372 -18 1243 0 1329 1
1390 18 91 25 155 56 228 112 153 116 235 289 235 500 0 340 -212 576 -551
615 -50 6 -400 10 -818 10 l-731 0 -43 23 c-143 75 -108 302 50 336 35 8 361
11 1024 11 l973 0 56 88 c31 49 59 96 63 105 6 16 -66 17 -1054 17 -738 0
-1077 -3 -1114 -11 -120 -25 -224 -107 -277 -219 -23 -49 -26 -67 -26 -170 0
-110 2 -119 32 -181 39 -79 102 -140 181 -177 53 -25 69 -27 210 -30 112 -3
152 -7 149 -15 -5 -16 -214 -21 -281 -7 -217 45 -353 248 -318 474 26 169 120
282 280 335 59 20 84 21 1150 21 1016 1 1091 2 1104 18 26 30 118 181 118 192
0 8 -331 10 -1172 7 -1089 -3 -1177 -4 -1233 -21 -210 -62 -367 -208 -436
-406 -34 -98 -39 -289 -10 -392 55 -201 193 -346 396 -415 l80 -28 810 -5
c729 -4 813 -7 840 -22 121 -67 125 -246 7 -320 l-37 -23 -1130 -3 c-1018 -2
-1135 -1 -1180 14 -60 19 -81 36 -107 89 -23 45 -16 49 -93 -59 -41 -58 -55
-66 -73 -43 -9 10 5 37 55 112 58 85 67 105 67 144 l1 46 -70 5 c-63 5 -70 7
-73 28 -3 21 0 22 71 22 l75 0 6 31 c13 64 5 97 -45 200 -81 166 -113 196
-217 208 l-54 6 -159 315 c-88 173 -173 335 -189 360 -54 84 -138 133 -256
150 -79 11 -663 11 -740 0z m4515 -309 c7 -5 11 -17 9 -27 -3 -18 -21 -19
-411 -22 l-407 -2 0 24 c0 15 7 26 18 29 31 9 777 6 791 -2z m-3005 -757 c59
-110 62 -125 37 -148 -35 -32 -57 -13 -112 100 -55 114 -55 134 1 134 25 0 33
-9 74 -86z m2626 35 c36 -5 88 -21 117 -34 222 -101 293 -410 143 -624 -47
-67 -80 -96 -155 -134 -69 -34 -146 -47 -291 -47 l-123 0 -43 -65 -42 -65
-534 0 c-422 0 -533 3 -530 13 4 9 121 13 529 15 l524 3 40 62 40 62 170 5
c165 5 172 6 237 37 87 41 151 101 188 177 127 258 -26 550 -300 573 -49 4
-70 10 -70 19 0 17 15 17 100 3z m-2616 -345 c9 -8 16 -21 16 -27 0 -7 -32
-55 -71 -107 l-72 -95 64 -125 c74 -144 48 -127 302 -200 l138 -40 270 0 c235
0 269 -2 269 -15 0 -14 -37 -15 -307 -13 l-308 3 -160 48 c-88 26 -168 50
-178 53 -11 3 -49 67 -97 164 l-79 158 57 79 c31 43 66 91 77 105 23 31 56 36
79 12z m-2134 -24 c9 -17 -7 -48 -111 -215 -145 -231 -167 -259 -192 -249 -13
4 -17 14 -15 28 7 33 280 456 294 456 7 0 18 -9 24 -20z m4523 -320 c4 0 7 -7
7 -15 0 -15 -57 -18 -652 -30 l-248 -6 0 25 c0 21 5 25 38 29 26 3 724 1 855
-3z"/>
</g>
</svg>
